<?xml version="1.0" encoding="UTF-8"?>
<svg version="1.1" xmlns="http://www.w3.org/2000/svg" width="400" height="400">
<path d="M0 0 C132 0 264 0 400 0 C400 132 400 264 400 400 C268 400 136 400 0 400 C0 268 0 136 0 0 Z " fill="#DBDBDB" transform="translate(0,0)"/>
<path d="M0 0 C1.19882813 0.4846875 2.39765625 0.969375 3.6328125 1.46875 C9.96613607 3.57903224 16.25659396 3.45066151 22.875 3.5 C31.75253296 3.56660528 39.55142559 4.1731344 48 7 C49.06992188 7.34160156 50.13984375 7.68320312 51.2421875 8.03515625 C60.24735603 11.54904249 70.71351632 17.5904781 76 26 C76.433125 27.5159375 76.433125 27.5159375 76.875 29.0625 C78.27881439 32.72801535 79.66902882 33.0965879 83 35 C90.88823594 44.74429146 90.9287958 56.09049933 89.80664062 68.06298828 C89.4303821 71.41313632 88.97538389 74.74708265 88.5078125 78.0859375 C87.85925709 83.08480304 87.53273479 88.07853227 87.24609375 93.109375 C87.03942935 95.53686158 86.68406953 97.67077151 86 100 C87.32 100 88.64 100 90 100 C95.15040075 110.3008015 89.37991097 126.52643342 86.13671875 136.7109375 C85.09307645 139.67595202 84.24448396 141.75551604 82 144 C79.375 144.125 79.375 144.125 77 144 C76.85304688 144.99966797 76.85304688 144.99966797 76.703125 146.01953125 C75.44517533 153.77327276 73.50714476 161.19890307 69.8515625 168.19921875 C64.37303646 178.70944069 67.08525134 191.36191508 68.28759766 202.71582031 C68.46662278 204.40686045 68.6331251 206.09928835 68.78515625 207.79296875 C68.9588987 209.57777751 69.21668427 211.35427671 69.5 213.125 C68.18797923 220.66911941 59.27606252 226.75064888 53.875 231.75 C53.13870361 232.43739258 52.40240723 233.12478516 51.64379883 233.83300781 C46.48641288 238.64173328 41.31037202 243.43118444 36.11083984 248.19433594 C33.34151991 250.7352489 30.63564215 253.32053482 28 256 C28.42410156 256.4125 28.84820312 256.825 29.28515625 257.25 C32.56925186 260.48357106 35.77987301 263.77196648 38.875 267.1875 C39.44992188 267.82042969 40.02484375 268.45335937 40.6171875 269.10546875 C43.00987327 272.38358343 43.00987327 272.38358343 43 275 C40.57001502 277.74713376 37.87805448 280.04469939 35.125 282.46484375 C32.73282606 284.73226138 32.73282606 284.73226138 33.12109375 287.21044922 C34.03275173 290.10395034 35.33438979 292.56643492 36.83178711 295.1966095 C42.22109706 304.80513096 43.46470331 313.44825496 44 324.3125 C44.10501548 325.88106706 44.21308137 327.44943293 44.32421875 329.01757812 C44.86452597 337.01267318 45.15791664 344.98463376 45 353 C45.66 353 46.32 353 47 353 C47.10441406 352.30519531 47.20882812 351.61039062 47.31640625 350.89453125 C48.11135769 347.5284797 49.41413194 344.79517085 50.9375 341.6875 C58.12605463 326.64583867 64.3341766 311.17335403 70 295.5 C70.37366699 294.4682666 70.74733398 293.4365332 71.13232422 292.37353516 C76.78670501 276.47271512 77.17409386 261.15700924 77.13037109 244.44482422 C77.1249448 241.97487426 77.1303893 239.50510122 77.13671875 237.03515625 C77.13605888 235.44010377 77.1347796 233.8450514 77.1328125 232.25 C77.13584885 231.16078247 77.13584885 231.16078247 77.13894653 230.04956055 C77.11862579 225.58964415 76.72274708 221.3867231 76 217 C79.6927782 217.59051183 81.46267728 219.14018383 84.25 221.5625 C93.29424083 228.28279021 104.35192878 230.76754981 115 234 C117.17759008 234.67675701 119.35467561 235.35513967 121.53125 236.03515625 C126.94825669 237.72139189 132.37381429 239.37797151 137.80273438 241.02539062 C140.97070387 241.99106978 144.13424367 242.97011826 147.296875 243.953125 C159.23355137 247.6756805 159.23355137 247.6756805 171.375 250.625 C179.61969186 252.43666255 186.10292255 255.91009351 191.44921875 262.546875 C194.66288521 267.63045822 196.28420056 273.27933225 198 279 C198.21978516 279.70656738 198.43957031 280.41313477 198.66601562 281.14111328 C205.88885408 304.45257007 211.16388293 328.43570702 215.5 352.4375 C215.62987305 353.15562866 215.75974609 353.87375732 215.89355469 354.61364746 C218 366.34597927 218 366.34597927 218 370 C88.64 370 -40.72 370 -174 370 C-172.70285721 359.62285771 -171.31996177 349.48211737 -169.3125 339.25 C-169.18438934 338.59313202 -169.05627869 337.93626404 -168.92428589 337.25949097 C-166.13831563 323.04079682 -162.76353279 308.99225539 -159 295 C-158.54874756 293.31680664 -158.54874756 293.31680664 -158.08837891 291.59960938 C-157.20220702 288.33182092 -156.29427857 285.07111593 -155.375 281.8125 C-154.97776733 280.37015991 -154.97776733 280.37015991 -154.57250977 278.89868164 C-151.67097193 268.89799471 -147.22058036 259.5147314 -138.11328125 253.8203125 C-133.6561116 251.62993199 -129.03313396 250.48342103 -124.21484375 249.3515625 C-112.83304499 246.58621552 -101.68475971 243.02388702 -90.5 239.5625 C-88.3477722 238.90001383 -86.19542899 238.23790245 -84.04296875 237.57617188 C-79.90182638 236.30261827 -75.76304907 235.0217623 -71.62573242 233.73583984 C-68.15132578 232.65775142 -64.67218505 231.60264304 -61.1809082 230.58056641 C-54.28925805 228.54519258 -48.01853115 226.54198575 -42.1875 222.25 C-36.19388545 218.06462848 -36.19388545 218.06462848 -33 217 C-33.00222061 217.54520294 -33.00444122 218.09040588 -33.00672913 218.65213013 C-33.02908544 224.39617244 -33.04403124 230.14020213 -33.05493164 235.88427734 C-33.05991869 238.01969913 -33.06671072 240.15511758 -33.07543945 242.29052734 C-33.7187407 264.10008458 -33.7187407 264.10008458 -29.8125 285.375 C-29.59255371 286.08140625 -29.37260742 286.7878125 -29.14599609 287.515625 C-26.73153066 295.12279851 -23.94104713 302.58297306 -21 310 C-20.74524902 310.64839844 -20.49049805 311.29679687 -20.22802734 311.96484375 C-15.000701 325.20521895 -8.99852439 338.09526904 -3 351 C-2.89042969 349.72584229 -2.78085938 348.45168457 -2.66796875 347.13891602 C-2.24533813 342.32521852 -1.78013928 337.51636007 -1.30322266 332.70776367 C-1.10411036 330.64241443 -0.91592979 328.5759763 -0.73974609 326.50854492 C0.46862686 312.4415818 3.07911603 301.34205941 10 289 C10.67474499 287.67073651 11.34631986 286.33974792 12 285 C11.41605469 284.72929687 10.83210937 284.45859375 10.23046875 284.1796875 C8.01116915 283.00590733 6.23438838 281.73421674 4.3125 280.125 C3.71050781 279.63257813 3.10851562 279.14015625 2.48828125 278.6328125 C0.64574776 276.61134531 -0.0398235 275.76773341 0 273 C1.66487436 270.84616254 3.2711701 269.02933785 5.1875 267.125 C8.95694997 263.2918272 12.14307304 259.56835575 15 255 C9.53502556 249.44461238 4.08949633 243.9398983 -1.83984375 238.875 C-4.60984971 236.47065486 -7.30375521 233.98620214 -10 231.5 C-14.13991592 227.68664565 -18.31802128 223.92560478 -22.57421875 220.2421875 C-23.40443006 219.51888012 -24.2214037 218.7785963 -25 218 C-25.13410433 215.85744942 -25.17633083 213.70921428 -25.1875 211.5625 C-25.19322021 210.87091797 -25.19894043 210.17933594 -25.20483398 209.46679688 C-25.18544653 204.83369344 -24.84737039 200.31654484 -24.3046875 195.71484375 C-22.79333085 182.45130237 -22.54621184 173.52135484 -29.09130859 161.80566406 C-30.64724853 158.71385005 -31.54141428 155.45723837 -32.4375 152.125 C-32.74558594 150.99320313 -33.05367187 149.86140625 -33.37109375 148.6953125 C-34 146 -34 146 -34 144 C-35.65 144 -37.3 144 -39 144 C-45.03366275 133.22560223 -48.15123552 121.08069356 -48.125 108.75 C-48.12757813 107.52796875 -48.13015625 106.3059375 -48.1328125 105.046875 C-48 102 -48 102 -47 100 C-45.68 100 -44.36 100 -43 100 C-43.31212466 96.39580073 -43.62477095 92.79164688 -43.9375 89.1875 C-44.02451172 88.18267578 -44.11152344 87.17785156 -44.20117188 86.14257812 C-44.63451718 81.15108223 -45.07630171 76.1607349 -45.5390625 71.171875 C-46.70125511 58.2718846 -46.84460542 48.37583705 -38.25390625 37.86328125 C-37.08950745 36.58477655 -35.91109361 35.31889 -34.71875 34.06640625 C-32.71253837 31.65439272 -31.4153422 29.17180653 -30 26.375 C-24.54908274 15.9490392 -15.50275002 11.95019764 -4.6875 8.515625 C-4.130625 8.34546875 -3.57375 8.1753125 -3 8 C-3.33 7.34 -3.66 6.68 -4 6 C-1.36 6.33 1.28 6.66 4 7 C3.34 6.21625 2.68 5.4325 2 4.625 C0 2 0 2 0 0 Z " fill="#58585A" transform="translate(181,30)"/>
<path d="M0 0 C2.97 0.99 5.94 1.98 9 3 C9 6 9 6 8 8 C6.0390625 8.51953125 6.0390625 8.51953125 3.625 8.8125 C2.83351562 8.92207031 2.04203125 9.03164063 1.2265625 9.14453125 C-1 9 -1 9 -2.7890625 7.51171875 C-3.18867188 7.01285156 -3.58828125 6.51398437 -4 6 C-1.36 6.33 1.28 6.66 4 7 C3.01 5.824375 3.01 5.824375 2 4.625 C0 2 0 2 0 0 Z " fill="#69696B" transform="translate(181,30)"/>
<path d="M0 0 C-0.33 2.31 -0.66 4.62 -1 7 C-6.75 8.125 -6.75 8.125 -9 7 C-9 6.34 -9 5.68 -9 5 C-7.5390625 3.7109375 -7.5390625 3.7109375 -5.625 2.375 C-4.99851563 1.92898437 -4.37203125 1.48296875 -3.7265625 1.0234375 C-2 0 -2 0 0 0 Z " fill="#5D5D5D" transform="translate(148,247)"/>
<path d="M0 0 C0.66 0.99 1.32 1.98 2 3 C0.68 2.67 -0.64 2.34 -2 2 C-1.34 2.78375 -0.68 3.5675 0 4.375 C2 7 2 7 2 9 C-1.63 8.67 -5.26 8.34 -9 8 C-8.34 7.34 -7.68 6.68 -7 6 C-6.34 6.33 -5.68 6.66 -5 7 C-4.731875 6.030625 -4.46375 5.06125 -4.1875 4.0625 C-3.795625 3.051875 -3.40375 2.04125 -3 1 C-2.01 0.67 -1.02 0.34 0 0 Z " fill="#CDCDCE" transform="translate(183,28)"/>
<path d="M0 0 C1.32 0.66 2.64 1.32 4 2 C3.67 2.66 3.34 3.32 3 4 C2.01 3.67 1.02 3.34 0 3 C-0.68707555 5.49064888 -1 7.37886292 -1 10 C-1.66 10.66 -2.32 11.32 -3 12 C-3.99 11.01 -4.98 10.02 -6 9 C-4.47291037 5.56404834 -2.40072955 2.88087546 0 0 Z " fill="#686868" transform="translate(187,296)"/>
<path d="M0 0 C0 3.23702819 -0.55908146 4.19821395 -2 7 C-2.68960962 8.99220557 -3.36079057 10.99105606 -4 13 C-4.33 12.34 -4.66 11.68 -5 11 C-6.32 11.33 -7.64 11.66 -9 12 C-6.78268341 6.8262613 -4.04983806 3.77984886 0 0 Z " fill="#666667" transform="translate(147,64)"/>
<path d="M0 0 C0.66 0 1.32 0 2 0 C1.71831703 1.95979427 1.42433283 3.91782378 1.125 5.875 C0.96257812 6.96554688 0.80015625 8.05609375 0.6328125 9.1796875 C0 12 0 12 -2 14 C-3 13 -3 13 -3.25 10.375 C-2.94640885 6.27651945 -1.76990092 3.68729358 0 0 Z " fill="#5E5E60" transform="translate(269,150)"/>
<path d="M0 0 C2.6855594 2.6855594 3.06049974 5.37621328 4 9 C3.01 9.66 2.02 10.32 1 11 C0.34 10.67 -0.32 10.34 -1 10 C-1.02689216 8.52093108 -1.04634621 7.04172517 -1.0625 5.5625 C-1.07410156 4.73878906 -1.08570313 3.91507812 -1.09765625 3.06640625 C-1 1 -1 1 0 0 Z " fill="#5F5F61" transform="translate(156,333)"/>
<path d="M0 0 C3 1 3 1 3 1 Z M-2 1 C0.4375 1.75 0.4375 1.75 3 3 C3.6875 5.0625 3.6875 5.0625 4 7 C4.66 7.33 5.32 7.66 6 8 C5.01 8.33 4.02 8.66 3 9 C0.5 6.6875 0.5 6.6875 -2 4 C-2 3.01 -2 2.02 -2 1 Z " fill="#606060" transform="translate(187,305)"/>
<path d="M0 0 C0.66 0.33 1.32 0.66 2 1 C0.69791667 2.43229167 -0.60416667 3.86458333 -1.90625 5.296875 C-3.36024492 7.22360515 -3.36024492 7.22360515 -3 11 C-4.32 10.67 -5.64 10.34 -7 10 C-7 7 -7 7 -5.46875 5.17578125 C-4.8190625 4.56089844 -4.169375 3.94601562 -3.5 3.3125 C-2.8503125 2.68988281 -2.200625 2.06726563 -1.53125 1.42578125 C-0.77328125 0.72001953 -0.77328125 0.72001953 0 0 Z " fill="#D1D1D1" transform="translate(235,260)"/>
<path d="M0 0 C3.77545388 1.09068668 6.47043472 1.9083091 9 5 C8.01 5.66 7.02 6.32 6 7 C3 5.1875 3 5.1875 0 3 C0 2.01 0 1.02 0 0 Z " fill="#616162" transform="translate(235,40)"/>
<path d="M0 0 C0.66 0.33 1.32 0.66 2 1 C2 3.64 2 6.28 2 9 C1.01 9.495 1.01 9.495 0 10 C-1.125 6.6875 -1.125 6.6875 -2 3 C-1.34 2.01 -0.68 1.02 0 0 Z " fill="#D3D3D5" transform="translate(156,323)"/>
<path d="M0 0 C0.66 0.33 1.32 0.66 2 1 C2 2.32 2 3.64 2 5 C-0.64 4.34 -3.28 3.68 -6 3 C-4 2 -2 1 0 0 Z " fill="#616163" transform="translate(131,257)"/>
<path d="M0 0 C0.66 0 1.32 0 2 0 C1.67 2.31 1.34 4.62 1 7 C0.01 6.67 -0.98 6.34 -2 6 C-1.34 4.02 -0.68 2.04 0 0 Z M-3 7 C-1 8 -1 8 -1 8 Z " fill="#646464" transform="translate(146,247)"/>
<path d="M0 0 C0.66 0 1.32 0 2 0 C2.33 1.65 2.66 3.3 3 5 C1.02 5.33 -0.96 5.66 -3 6 C-2.505 5.195625 -2.01 4.39125 -1.5 3.5625 C0.08419653 1.35103815 0.08419653 1.35103815 0 0 Z " fill="#6C6C6E" transform="translate(196,284)"/>
<path d="M0 0 C2.31 0.66 4.62 1.32 7 2 C6.01 2.99 5.02 3.98 4 5 C2 3.625 2 3.625 0 2 C0 1.34 0 0.68 0 0 Z " fill="#636364" transform="translate(181,30)"/>
</svg>
